<svg width="500" height="500" viewBox="0 0 500 500" fill="none" xmlns="http://www.w3.org/2000/svg">
<g id="Frame 1">
<rect width="500" height="500" fill="white"/>
<g id="desk">
<rect id="desk-top" x="134" y="236.501" width="232" height="7.73333" fill="#DDB892"/>
<rect id="desk-left" x="149.467" y="244.234" width="11.6" height="100.533" fill="#F1340B"/>
<rect id="desk-right" x="338.933" y="244.234" width="11.6" height="100.533" fill="#F1340B"/>
<rect id="desk-bottom" x="161.067" y="314.608" width="177.867" height="9.28" fill="#D32E0A"/>
</g>
<g id="laptop">
<rect id="laptop-keyboard" x="229" y="232.104" width="61" height="3.15517" rx="1.57759" fill="black"/>
<rect id="laptop-frame" x="234.259" y="199.501" width="50.4828" height="31.5517" rx="2" fill="black"/>
<rect id="laptop-screen" x="236.362" y="201.604" width="46.2759" height="27.3448" rx="2" fill="white"/>
</g>
<g id="lamp">
<g id="lamp-base">
<path d="M352 235.501H325C325 235.501 326.706 234.348 328 233.756C334.572 230.749 342.428 230.749 349 233.756C350.294 234.348 352 235.501 352 235.501Z" fill="#808080"/>
<path d="M341 226.204V231.501H337V226.204C337 223.933 341 223.933 341 226.204Z" fill="#808080"/>
<path d="M352 235.501H325C325 235.501 326.706 234.348 328 233.756C334.572 230.749 342.428 230.749 349 233.756C350.294 234.348 352 235.501 352 235.501Z" stroke="#808080"/>
<path d="M341 226.204V231.501H337V226.204C337 223.933 341 223.933 341 226.204Z" stroke="#808080"/>
</g>
<g id="lamp-pole">
<path d="M338 180.682V224.501H340V179.501L310 161.501V164.001L338 180.682Z" fill="#808080"/>
<path d="M309.794 164.031L311.044 162.031C311.46 161.365 310.981 160.501 310.196 160.501H303C302.448 160.501 302 160.949 302 161.501V163.501C302 164.053 302.448 164.501 303 164.501H308.946C309.291 164.501 309.611 164.323 309.794 164.031Z" fill="#808080"/>
<path d="M338 180.682V224.501H340V179.501L310 161.501V164.001L338 180.682Z" stroke="#808080"/>
<path d="M309.794 164.031L311.044 162.031C311.46 161.365 310.981 160.501 310.196 160.501H303C302.448 160.501 302 160.949 302 161.501V163.501C302 164.053 302.448 164.501 303 164.501H308.946C309.291 164.501 309.611 164.323 309.794 164.031Z" stroke="#808080"/>
</g>
<g id="lamp-shade">
<path d="M294.454 155.618C294.777 154.129 301.617 155.613 301.294 157.102C300.971 158.591 299.841 163.803 299.841 163.803C297.169 163.224 295.672 162.899 293 162.319C293 162.319 294.131 157.107 294.454 155.618Z" fill="#808080"/>
<path d="M305.415 177.794C305.734 176.35 305.74 174.852 305.432 173.385C305.124 171.919 304.508 170.512 303.62 169.245C302.732 167.978 301.589 166.876 300.256 166.002C298.923 165.128 297.426 164.499 295.851 164.151C294.276 163.803 292.654 163.743 291.077 163.974C289.499 164.205 287.998 164.722 286.659 165.497C285.32 166.272 284.169 167.288 283.271 168.489C282.374 169.689 281.748 171.05 281.429 172.494L305.415 177.794Z" fill="#808080"/>
</g>
<path id="lamp-lightbulb" d="M290.657 174.942C290.586 175.263 290.579 175.594 290.636 175.917C290.694 176.241 290.814 176.549 290.991 176.826C291.167 177.103 291.397 177.342 291.666 177.53C291.935 177.718 292.238 177.852 292.559 177.923C292.879 177.993 293.211 178 293.534 177.943C293.857 177.886 294.166 177.766 294.443 177.589C294.72 177.412 294.959 177.183 295.147 176.914C295.335 176.645 295.468 176.341 295.539 176.021L293.098 175.481L290.657 174.942Z" fill="#FFE599"/>
</g>
<g id="plant">
<g id="plant-pot">
<path d="M174.882 235.285H156.118L151 213.285H180L174.882 235.285Z" fill="#E3A15C"/>
<path d="M149 209.784H182V212.784H149V209.784Z" fill="#CA9965"/>
</g>
<path id="plant-stem" d="M165 183.784C165.391 183.784 165.5 184.284 165.5 184.284L166 209.784H165V183.784Z" fill="#3C8361"/>
<path id="plant-leaf3" d="M161.347 188.158C159.176 186.685 156.16 185.099 154.687 187.27C153.214 189.441 155.801 191.657 157.973 193.131C160.144 194.604 164.632 194.018 164.632 194.018C164.632 194.018 163.518 189.631 161.347 188.158Z" fill="#529676" stroke="#529676"/>
<path id="plant-leaf4" d="M172.413 197.196C174.512 195.623 176.993 193.287 175.419 191.188C173.845 189.088 170.908 190.814 168.808 192.388C166.709 193.962 166 198.284 166 198.284C166 198.284 170.313 198.77 172.413 197.196Z" fill="#3C8361" stroke="#3C8361"/>
<path id="plant-leaf1" d="M163.5 180.284C162 179.284 158.63 177.046 157.404 178.852C156.178 180.659 158.331 182.503 160.137 183.729C161.944 184.954 165 184.784 165 184.784C165 184.784 165 181.284 163.5 180.284Z" fill="#529676" stroke="#529676"/>
<path id="plant-leaf2" d="M171.973 188.757C173.751 187.491 175.862 185.598 174.596 183.82C173.33 182.042 170.851 183.418 169.073 184.684C167.295 185.95 166 189.784 166 189.784C166 189.784 170.195 190.023 171.973 188.757Z" fill="#529676" stroke="#529676"/>
<path id="plant-leaf5" d="M161.127 198.473C158.753 196.862 155.456 195.128 153.845 197.502C152.234 199.876 155.063 202.3 157.437 203.91C159.811 205.521 164.719 204.881 164.719 204.881C164.719 204.881 163.501 200.084 161.127 198.473Z" fill="#3C8361" stroke="#3C8361"/>
<path id="plant-leaf6" d="M173.173 206.957C175.5 205.278 178.259 202.775 176.58 200.448C174.902 198.121 171.656 199.949 169.329 201.627C167.002 203.306 165.922 208.136 165.922 208.136C165.922 208.136 170.846 208.635 173.173 206.957Z" fill="#3C8361" stroke="#3C8361"/>
</g>
<path id="computer-text" d="M238.352 207V204.091H238.705V205.386H240.256V204.091H240.608V207H240.256V205.699H238.705V207H238.352ZM242.183 207.045C241.972 207.045 241.791 206.999 241.638 206.906C241.487 206.812 241.37 206.682 241.288 206.514C241.206 206.346 241.165 206.15 241.165 205.926C241.165 205.703 241.206 205.506 241.288 205.335C241.37 205.164 241.485 205.03 241.631 204.935C241.779 204.838 241.951 204.79 242.148 204.79C242.262 204.79 242.374 204.809 242.485 204.847C242.596 204.884 242.697 204.946 242.788 205.031C242.879 205.116 242.951 205.227 243.005 205.366C243.059 205.506 243.086 205.677 243.086 205.881V206.023H241.404V205.733H242.745C242.745 205.61 242.72 205.5 242.671 205.403C242.623 205.307 242.554 205.231 242.464 205.175C242.375 205.119 242.27 205.091 242.148 205.091C242.015 205.091 241.899 205.124 241.802 205.19C241.705 205.256 241.631 205.341 241.579 205.446C241.527 205.551 241.501 205.664 241.501 205.784V205.977C241.501 206.142 241.529 206.282 241.586 206.396C241.644 206.51 241.724 206.597 241.826 206.656C241.928 206.715 242.047 206.744 242.183 206.744C242.271 206.744 242.35 206.732 242.421 206.707C242.493 206.682 242.555 206.644 242.607 206.594C242.659 206.543 242.7 206.479 242.728 206.403L243.052 206.494C243.018 206.604 242.96 206.701 242.88 206.784C242.799 206.866 242.7 206.931 242.582 206.977C242.463 207.023 242.33 207.045 242.183 207.045ZM243.931 204.091V207H243.596V204.091H243.931ZM244.88 204.091V207H244.545V204.091H244.88ZM246.381 207.045C246.184 207.045 246.011 206.999 245.862 206.905C245.714 206.811 245.599 206.68 245.516 206.511C245.433 206.343 245.392 206.146 245.392 205.92C245.392 205.693 245.433 205.495 245.516 205.325C245.599 205.156 245.714 205.024 245.862 204.93C246.011 204.837 246.184 204.79 246.381 204.79C246.578 204.79 246.75 204.837 246.898 204.93C247.046 205.024 247.162 205.156 247.244 205.325C247.328 205.495 247.369 205.693 247.369 205.92C247.369 206.146 247.328 206.343 247.244 206.511C247.162 206.68 247.046 206.811 246.898 206.905C246.75 206.999 246.578 207.045 246.381 207.045ZM246.381 206.744C246.53 206.744 246.653 206.706 246.75 206.629C246.847 206.553 246.918 206.452 246.964 206.327C247.011 206.202 247.034 206.066 247.034 205.92C247.034 205.775 247.011 205.639 246.964 205.513C246.918 205.387 246.847 205.285 246.75 205.207C246.653 205.13 246.53 205.091 246.381 205.091C246.231 205.091 246.108 205.13 246.011 205.207C245.915 205.285 245.843 205.387 245.797 205.513C245.75 205.639 245.727 205.775 245.727 205.92C245.727 206.066 245.75 206.202 245.797 206.327C245.843 206.452 245.915 206.553 246.011 206.629C246.108 206.706 246.231 206.744 246.381 206.744ZM249.58 207L248.784 204.091H249.142L249.75 206.46H249.779L250.398 204.091H250.796L251.415 206.46H251.444L252.051 204.091H252.409L251.614 207H251.25L250.608 204.682H250.586L249.944 207H249.58ZM253.486 207.045C253.289 207.045 253.116 206.999 252.968 206.905C252.82 206.811 252.704 206.68 252.621 206.511C252.539 206.343 252.498 206.146 252.498 205.92C252.498 205.693 252.539 205.495 252.621 205.325C252.704 205.156 252.82 205.024 252.968 204.93C253.116 204.837 253.289 204.79 253.486 204.79C253.683 204.79 253.855 204.837 254.003 204.93C254.152 205.024 254.267 205.156 254.35 205.325C254.433 205.495 254.475 205.693 254.475 205.92C254.475 206.146 254.433 206.343 254.35 206.511C254.267 206.68 254.152 206.811 254.003 206.905C253.855 206.999 253.683 207.045 253.486 207.045ZM253.486 206.744C253.636 206.744 253.759 206.706 253.855 206.629C253.952 206.553 254.024 206.452 254.07 206.327C254.116 206.202 254.14 206.066 254.14 205.92C254.14 205.775 254.116 205.639 254.07 205.513C254.024 205.387 253.952 205.285 253.855 205.207C253.759 205.13 253.636 205.091 253.486 205.091C253.337 205.091 253.213 205.13 253.117 205.207C253.02 205.285 252.949 205.387 252.902 205.513C252.856 205.639 252.833 205.775 252.833 205.92C252.833 206.066 252.856 206.202 252.902 206.327C252.949 206.452 253.02 206.553 253.117 206.629C253.213 206.706 253.337 206.744 253.486 206.744ZM254.987 207V204.818H255.31V205.148H255.333C255.373 205.04 255.445 204.952 255.549 204.885C255.653 204.818 255.771 204.784 255.901 204.784C255.926 204.784 255.957 204.785 255.994 204.786C256.031 204.786 256.058 204.788 256.077 204.79V205.131C256.066 205.128 256.04 205.124 255.999 205.118C255.96 205.111 255.917 205.108 255.873 205.108C255.767 205.108 255.672 205.13 255.589 205.175C255.506 205.218 255.441 205.279 255.393 205.357C255.345 205.433 255.322 205.521 255.322 205.619V207H254.987ZM256.81 204.091V207H256.475V204.091H256.81ZM258.248 207.045C258.066 207.045 257.906 207 257.766 206.908C257.627 206.815 257.518 206.684 257.44 206.516C257.361 206.346 257.322 206.146 257.322 205.915C257.322 205.686 257.361 205.487 257.44 205.318C257.518 205.15 257.628 205.019 257.768 204.928C257.908 204.836 258.07 204.79 258.254 204.79C258.396 204.79 258.508 204.813 258.59 204.861C258.674 204.907 258.737 204.96 258.781 205.02C258.825 205.079 258.86 205.127 258.884 205.165H258.913V204.091H259.248V207H258.924V206.665H258.884C258.86 206.705 258.825 206.755 258.779 206.815C258.734 206.875 258.669 206.929 258.585 206.976C258.5 207.022 258.388 207.045 258.248 207.045ZM258.293 206.744C258.428 206.744 258.541 206.709 258.634 206.639C258.727 206.568 258.798 206.47 258.846 206.345C258.894 206.219 258.918 206.074 258.918 205.909C258.918 205.746 258.895 205.604 258.847 205.482C258.8 205.358 258.73 205.263 258.637 205.195C258.544 205.125 258.43 205.091 258.293 205.091C258.151 205.091 258.033 205.127 257.938 205.2C257.844 205.272 257.774 205.37 257.727 205.494C257.68 205.617 257.657 205.756 257.657 205.909C257.657 206.064 257.681 206.205 257.728 206.332C257.776 206.458 257.847 206.559 257.941 206.634C258.036 206.707 258.153 206.744 258.293 206.744ZM260.153 207.023C260.083 207.023 260.022 206.998 259.972 206.947C259.922 206.897 259.897 206.837 259.897 206.767C259.897 206.697 259.922 206.637 259.972 206.587C260.022 206.536 260.083 206.511 260.153 206.511C260.223 206.511 260.283 206.536 260.333 206.587C260.383 206.637 260.408 206.697 260.408 206.767C260.408 206.813 260.397 206.856 260.373 206.895C260.35 206.934 260.319 206.965 260.281 206.989C260.243 207.011 260.2 207.023 260.153 207.023ZM261.254 207.023C261.184 207.023 261.124 206.998 261.074 206.947C261.024 206.897 260.999 206.837 260.999 206.767C260.999 206.697 261.024 206.637 261.074 206.587C261.124 206.536 261.184 206.511 261.254 206.511C261.324 206.511 261.384 206.536 261.435 206.587C261.485 206.637 261.51 206.697 261.51 206.767C261.51 206.813 261.498 206.856 261.474 206.895C261.452 206.934 261.421 206.965 261.382 206.989C261.344 207.011 261.302 207.023 261.254 207.023ZM262.356 207.023C262.286 207.023 262.226 206.998 262.175 206.947C262.125 206.897 262.1 206.837 262.1 206.767C262.1 206.697 262.125 206.637 262.175 206.587C262.226 206.536 262.286 206.511 262.356 206.511C262.426 206.511 262.486 206.536 262.536 206.587C262.586 206.637 262.612 206.697 262.612 206.767C262.612 206.813 262.6 206.856 262.576 206.895C262.553 206.934 262.522 206.965 262.484 206.989C262.446 207.011 262.403 207.023 262.356 207.023Z" fill="black"/>
</g>
</svg>
