<svg width="880" height="313" viewBox="0 0 880 313" fill="none" xmlns="http://www.w3.org/2000/svg">
<g id="modular-synth" clip-path="url(#clip0_4_3)">
<rect width="880" height="313" fill="white"/>
<g id="case">
<rect id="Rectangle 1" y="3" width="880" height="310" fill="#D1B18E"/>
<rect id="Rectangle 2" width="880" height="20" fill="#EED6B3"/>
<rect id="Rectangle 3" y="290" width="880" height="20" fill="#EED6B3"/>
<line id="Line 1" y1="19.5" x2="880" y2="19.5" stroke="#D1B18E"/>
<line id="Line 2" y1="289.5" x2="880" y2="289.5" stroke="#D1B18E"/>
<rect id="Rectangle 4" y="20" width="20" height="269" fill="#EED6B3"/>
<rect id="Rectangle 5" x="860" y="20" width="20" height="269" fill="#EED6B3"/>
<rect id="Rectangle 6" x="20" y="20" width="840" height="10" fill="#A0A0A0"/>
<rect id="Rectangle 7" x="20" y="279" width="840" height="10" fill="#A0A0A0"/>
</g>
<g id="behringer-cp1a">
<rect id="Rectangle 8" x="20" y="19" width="42" height="271" fill="#343434"/>
<path id="-12V" d="M37.5745 144.364V144.004H38.6725V144.364H37.5745ZM39.1009 145V143.236L39.1519 143.281C39.1219 143.343 39.0789 143.401 39.0229 143.455C38.9669 143.507 38.9009 143.552 38.8249 143.59C38.7509 143.626 38.6679 143.653 38.5759 143.671V143.221C38.6499 143.211 38.7269 143.187 38.8069 143.149C38.8869 143.109 38.9589 143.062 39.0229 143.008C39.0889 142.952 39.1359 142.896 39.1639 142.84H39.5509V145H39.1009ZM39.7811 145V144.64C39.9791 144.478 40.1441 144.339 40.2761 144.223C40.4101 144.105 40.5161 144.001 40.5941 143.911C40.6741 143.821 40.7311 143.739 40.7651 143.665C40.7991 143.591 40.8161 143.517 40.8161 143.443C40.8161 143.355 40.7921 143.287 40.7441 143.239C40.6981 143.189 40.6331 143.164 40.5491 143.164C40.4611 143.164 40.3881 143.191 40.3301 143.245C40.2721 143.299 40.2361 143.373 40.2221 143.467H39.7601C39.7821 143.263 39.8651 143.103 40.0091 142.987C40.1531 142.869 40.3391 142.81 40.5671 142.81C40.7991 142.81 40.9801 142.87 41.1101 142.99C41.2401 143.108 41.3051 143.273 41.3051 143.485C41.3051 143.585 41.2881 143.681 41.2541 143.773C41.2221 143.865 41.1681 143.96 41.0921 144.058C41.0161 144.156 40.9121 144.264 40.7801 144.382C40.6501 144.498 40.4871 144.631 40.2911 144.781L40.1801 144.646H41.3471V145H39.7811ZM42.2425 145L41.4685 142.84H41.9485L42.5395 144.64H42.4825L43.0765 142.84H43.5325L42.7585 145H42.2425Z" fill="white"/>
<path id="+5V" d="M38.409 99.601V98.17H38.745V99.601H38.409ZM37.899 99.049V98.725H39.252V99.049H37.899ZM40.1691 100.03C39.9471 100.03 39.7651 99.973 39.6231 99.859C39.4811 99.745 39.3931 99.585 39.3591 99.379H39.8181C39.8341 99.471 39.8741 99.544 39.9381 99.598C40.0021 99.65 40.0751 99.676 40.1571 99.676C40.2511 99.676 40.3261 99.644 40.3821 99.58C40.4401 99.514 40.4691 99.415 40.4691 99.283C40.4691 99.157 40.4421 99.061 40.3881 98.995C40.3341 98.927 40.2601 98.893 40.1661 98.893C40.1121 98.893 40.0611 98.906 40.0131 98.932C39.9651 98.956 39.9251 98.996 39.8931 99.052H39.4731L39.5841 97.84H40.8261V98.194H39.7461L39.9921 98.161L39.9381 98.836L39.7881 98.815C39.8401 98.733 39.9031 98.671 39.9771 98.629C40.0531 98.585 40.1491 98.563 40.2651 98.563C40.4031 98.563 40.5241 98.593 40.6281 98.653C40.7321 98.713 40.8131 98.797 40.8711 98.905C40.9291 99.013 40.9581 99.141 40.9581 99.289C40.9581 99.445 40.9251 99.578 40.8591 99.688C40.7931 99.798 40.7011 99.883 40.5831 99.943C40.4651 100.001 40.3271 100.03 40.1691 100.03ZM41.888 100L41.114 97.84H41.594L42.185 99.64H42.128L42.722 97.84H43.178L42.404 100H41.888Z" fill="white"/>
<rect id="Rectangle 10" x="20" y="19" width="3" height="271" fill="#BEBEBE"/>
<rect id="Rectangle 11" x="59" y="19" width="3" height="271" fill="#BEBEBE"/>
<path id="PSU" d="M35.2678 42V37.68H37.3198C37.6398 37.68 37.9138 37.736 38.1418 37.848C38.3738 37.96 38.5518 38.116 38.6758 38.316C38.8038 38.516 38.8678 38.75 38.8678 39.018C38.8678 39.286 38.8038 39.522 38.6758 39.726C38.5478 39.93 38.3678 40.09 38.1358 40.206C37.9078 40.318 37.6358 40.374 37.3198 40.374H35.9998V39.666H37.2718C37.4838 39.666 37.6478 39.608 37.7638 39.492C37.8838 39.372 37.9438 39.216 37.9438 39.024C37.9438 38.832 37.8838 38.678 37.7638 38.562C37.6478 38.446 37.4838 38.388 37.2718 38.388H36.1918V42H35.2678ZM40.9813 42.054C40.4213 42.054 39.9733 41.93 39.6373 41.682C39.3013 41.43 39.1053 41.076 39.0493 40.62H39.9373C39.9653 40.852 40.0773 41.036 40.2733 41.172C40.4693 41.304 40.7193 41.37 41.0233 41.37C41.2713 41.37 41.4613 41.326 41.5933 41.238C41.7293 41.15 41.7973 41.032 41.7973 40.884C41.7973 40.744 41.7573 40.632 41.6773 40.548C41.5973 40.46 41.4593 40.39 41.2633 40.338L40.4593 40.116C40.0473 40 39.7453 39.842 39.5533 39.642C39.3653 39.438 39.2713 39.184 39.2713 38.88C39.2713 38.62 39.3373 38.396 39.4693 38.208C39.6053 38.016 39.7953 37.87 40.0393 37.77C40.2833 37.666 40.5693 37.614 40.8973 37.614C41.4013 37.614 41.8033 37.734 42.1033 37.974C42.4033 38.21 42.5733 38.524 42.6133 38.916H41.7253C41.6853 38.704 41.5873 38.548 41.4313 38.448C41.2793 38.348 41.0833 38.298 40.8433 38.298C40.6353 38.298 40.4693 38.338 40.3453 38.418C40.2213 38.498 40.1593 38.606 40.1593 38.742C40.1593 38.846 40.1933 38.942 40.2613 39.03C40.3293 39.114 40.4713 39.186 40.6873 39.246L41.4913 39.468C41.9153 39.584 42.2193 39.744 42.4033 39.948C42.5913 40.148 42.6853 40.402 42.6853 40.71C42.6853 41.142 42.5353 41.474 42.2353 41.706C41.9353 41.938 41.5173 42.054 40.9813 42.054ZM44.9251 42.06C44.3091 42.06 43.8471 41.892 43.5391 41.556C43.2351 41.216 43.0831 40.722 43.0831 40.074V37.68H44.0071V40.236C44.0071 40.612 44.0891 40.888 44.2531 41.064C44.4171 41.24 44.6431 41.328 44.9311 41.328C45.2191 41.328 45.4451 41.24 45.6091 41.064C45.7731 40.888 45.8551 40.614 45.8551 40.242V37.68H46.7791V40.086C46.7791 40.726 46.6251 41.216 46.3171 41.556C46.0091 41.892 45.5451 42.06 44.9251 42.06Z" fill="white"/>
<path id="CP1A" d="M36.2288 274.06C35.9168 274.06 35.6288 274.006 35.3648 273.898C35.1008 273.786 34.8708 273.63 34.6748 273.43C34.4828 273.23 34.3328 272.994 34.2248 272.722C34.1168 272.446 34.0628 272.146 34.0628 271.822C34.0628 271.498 34.1148 271.202 34.2188 270.934C34.3268 270.666 34.4768 270.434 34.6688 270.238C34.8648 270.038 35.0948 269.886 35.3588 269.782C35.6228 269.674 35.9128 269.62 36.2288 269.62C36.5848 269.62 36.9048 269.69 37.1888 269.83C37.4768 269.966 37.7108 270.16 37.8908 270.412C38.0748 270.66 38.1868 270.952 38.2268 271.288H37.3268C37.2748 270.98 37.1488 270.748 36.9488 270.592C36.7488 270.432 36.5108 270.352 36.2348 270.352C35.9908 270.352 35.7748 270.41 35.5868 270.526C35.4028 270.642 35.2588 270.81 35.1548 271.03C35.0508 271.246 34.9988 271.508 34.9988 271.816C34.9988 272.128 35.0508 272.398 35.1548 272.626C35.2628 272.85 35.4108 273.024 35.5988 273.148C35.7868 273.268 36.0028 273.328 36.2468 273.328C36.5068 273.328 36.7368 273.25 36.9368 273.094C37.1368 272.938 37.2668 272.706 37.3268 272.398H38.2388C38.1868 272.734 38.0688 273.028 37.8848 273.28C37.7008 273.528 37.4668 273.72 37.1828 273.856C36.8988 273.992 36.5808 274.06 36.2288 274.06ZM38.6828 274V269.68H40.7348C41.0548 269.68 41.3288 269.736 41.5568 269.848C41.7888 269.96 41.9668 270.116 42.0908 270.316C42.2188 270.516 42.2828 270.75 42.2828 271.018C42.2828 271.286 42.2188 271.522 42.0908 271.726C41.9628 271.93 41.7828 272.09 41.5508 272.206C41.3228 272.318 41.0508 272.374 40.7348 272.374H39.4148V271.666H40.6868C40.8988 271.666 41.0628 271.608 41.1788 271.492C41.2988 271.372 41.3588 271.216 41.3588 271.024C41.3588 270.832 41.2988 270.678 41.1788 270.562C41.0628 270.446 40.8988 270.388 40.6868 270.388H39.6068V274H38.6828ZM43.5768 274V270.472L43.6788 270.562C43.6188 270.686 43.5328 270.802 43.4208 270.91C43.3088 271.014 43.1768 271.104 43.0248 271.18C42.8768 271.252 42.7108 271.306 42.5268 271.342V270.442C42.6748 270.422 42.8288 270.374 42.9888 270.298C43.1488 270.218 43.2928 270.124 43.4208 270.016C43.5528 269.904 43.6468 269.792 43.7028 269.68H44.4768V274H43.5768ZM44.8432 274L46.3912 269.68H47.1832L45.7612 274H44.8432ZM48.0112 274L46.5952 269.68H47.4232L48.9712 274H48.0112ZM45.6592 272.326H48.0832V273.046H45.6592V272.326Z" fill="white"/>
<path id="ON" d="M40.4206 225.03C40.2606 225.03 40.1126 225.003 39.9766 224.949C39.8426 224.895 39.7256 224.819 39.6256 224.721C39.5276 224.621 39.4506 224.503 39.3946 224.367C39.3406 224.229 39.3136 224.077 39.3136 223.911C39.3136 223.691 39.3606 223.499 39.4546 223.335C39.5486 223.169 39.6786 223.04 39.8446 222.948C40.0126 222.856 40.2036 222.81 40.4176 222.81C40.6356 222.81 40.8276 222.856 40.9936 222.948C41.1596 223.04 41.2896 223.169 41.3836 223.335C41.4796 223.501 41.5276 223.694 41.5276 223.914C41.5276 224.078 41.4996 224.229 41.4436 224.367C41.3896 224.503 41.3126 224.621 41.2126 224.721C41.1146 224.819 40.9976 224.895 40.8616 224.949C40.7276 225.003 40.5806 225.03 40.4206 225.03ZM40.4176 224.664C40.5436 224.664 40.6546 224.632 40.7506 224.568C40.8466 224.504 40.9216 224.416 40.9756 224.304C41.0316 224.19 41.0596 224.058 41.0596 223.908C41.0596 223.76 41.0326 223.631 40.9786 223.521C40.9246 223.411 40.8496 223.326 40.7536 223.266C40.6576 223.206 40.5456 223.176 40.4176 223.176C40.2916 223.176 40.1806 223.206 40.0846 223.266C39.9886 223.326 39.9136 223.411 39.8596 223.521C39.8076 223.629 39.7816 223.758 39.7816 223.908C39.7816 224.06 39.8086 224.193 39.8626 224.307C39.9166 224.419 39.9916 224.507 40.0876 224.571C40.1836 224.633 40.2936 224.664 40.4176 224.664ZM41.7672 225V222.84H42.3642L43.3242 224.748L43.1772 224.784V222.84H43.6272V225H43.0302L42.0702 223.092L42.2172 223.056V225H41.7672Z" fill="white"/>
<path id="behringer" d="M27.2442 184C27.0762 184 26.9922 183.916 26.9922 183.748V180.028C26.9922 179.86 27.0762 179.776 27.2442 179.776C27.4122 179.776 27.4962 179.86 27.4962 180.028V181.279C27.6002 181.173 27.7302 181.093 27.8862 181.039C28.0422 180.985 28.2242 180.958 28.4322 180.958H28.6602C29.0602 180.958 29.3562 181.054 29.5482 181.246C29.7402 181.438 29.8362 181.734 29.8362 182.134V182.824C29.8362 183.222 29.7402 183.518 29.5482 183.712C29.3562 183.904 29.0602 184 28.6602 184H28.4322C28.2242 184 28.0422 183.973 27.8862 183.919C27.7302 183.865 27.6002 183.786 27.4962 183.682V183.748C27.4962 183.916 27.4122 184 27.2442 184ZM28.4322 183.496H28.6602C28.9222 183.496 29.0992 183.449 29.1912 183.355C29.2852 183.259 29.3322 183.082 29.3322 182.824V182.134C29.3322 181.872 29.2842 181.695 29.1882 181.603C29.0942 181.509 28.9182 181.462 28.6602 181.462H28.4322C28.1682 181.462 27.9462 181.496 27.7662 181.564C27.5862 181.63 27.4962 181.734 27.4962 181.876V183.082C27.4962 183.222 27.5862 183.326 27.7662 183.394C27.9462 183.462 28.1682 183.496 28.4322 183.496ZM31.3014 182.686V182.83C31.3014 183.088 31.3484 183.264 31.4424 183.358C31.5364 183.45 31.7134 183.496 31.9734 183.496H32.4654C32.6694 183.496 32.8204 183.477 32.9184 183.439C33.0164 183.401 33.0814 183.334 33.1134 183.238C33.1354 183.162 33.1654 183.104 33.2034 183.064C33.2434 183.024 33.3034 183.004 33.3834 183.004C33.4674 183.004 33.5314 183.026 33.5754 183.07C33.6194 183.114 33.6334 183.178 33.6174 183.262C33.5734 183.51 33.4554 183.695 33.2634 183.817C33.0714 183.939 32.8054 184 32.4654 184H31.9734C31.5754 184 31.2794 183.904 31.0854 183.712C30.8934 183.52 30.7974 183.226 30.7974 182.83V182.134C30.7974 181.728 30.8934 181.43 31.0854 181.24C31.2794 181.048 31.5754 180.954 31.9734 180.958H32.4654C32.8654 180.958 33.1614 181.054 33.3534 181.246C33.5454 181.436 33.6414 181.732 33.6414 182.134V182.434C33.6414 182.602 33.5574 182.686 33.3894 182.686H31.3014ZM31.9734 181.462C31.7134 181.458 31.5364 181.503 31.4424 181.597C31.3484 181.691 31.3014 181.87 31.3014 182.134V182.182H33.1374V182.134C33.1374 181.872 33.0904 181.695 32.9964 181.603C32.9044 181.509 32.7274 181.462 32.4654 181.462H31.9734ZM34.9961 184C34.8281 184 34.7441 183.916 34.7441 183.748V180.028C34.7441 179.86 34.8281 179.776 34.9961 179.776C35.1641 179.776 35.2481 179.86 35.2481 180.028V181.309C35.4601 181.075 35.7721 180.958 36.1841 180.958H36.3521C36.7521 180.958 37.0481 181.054 37.2401 181.246C37.4321 181.438 37.5281 181.734 37.5281 182.134V183.748C37.5281 183.916 37.4441 184 37.2761 184C37.1081 184 37.0241 183.916 37.0241 183.748V182.134C37.0241 181.872 36.9761 181.695 36.8801 181.603C36.7861 181.509 36.6101 181.462 36.3521 181.462H36.1841C35.9441 181.462 35.7351 181.49 35.5571 181.546C35.3791 181.6 35.2761 181.686 35.2481 181.804V183.748C35.2481 183.916 35.1641 184 34.9961 184ZM38.9688 184C38.8008 184 38.7168 183.916 38.7168 183.748V181.21C38.7168 181.042 38.8008 180.958 38.9688 180.958C39.1368 180.958 39.2208 181.042 39.2208 181.21V181.444C39.3388 181.284 39.4888 181.163 39.6708 181.081C39.8548 180.999 40.0648 180.958 40.3008 180.958C40.4688 180.958 40.5528 181.042 40.5528 181.21C40.5528 181.378 40.4688 181.462 40.3008 181.462C39.9548 181.462 39.6908 181.526 39.5088 181.654C39.3268 181.782 39.2308 181.951 39.2208 182.161V183.748C39.2208 183.916 39.1368 184 38.9688 184ZM41.4453 180.466C41.2553 180.466 41.1603 180.37 41.1603 180.178V180.001C41.1603 179.813 41.2553 179.719 41.4453 179.719H41.6193C41.8013 179.719 41.8923 179.813 41.8923 180.001V180.178C41.8923 180.37 41.8013 180.466 41.6193 180.466H41.4453ZM41.5293 184C41.3613 184 41.2773 183.916 41.2773 183.748V181.21C41.2773 181.042 41.3613 180.958 41.5293 180.958C41.6973 180.958 41.7813 181.042 41.7813 181.21V183.748C41.7813 183.916 41.6973 184 41.5293 184ZM43.2813 184C43.1133 184 43.0293 183.916 43.0293 183.748V181.21C43.0293 181.042 43.1133 180.958 43.2813 180.958C43.4493 180.958 43.5333 181.042 43.5333 181.21V181.309C43.7453 181.075 44.0573 180.958 44.4693 180.958H44.6373C45.0373 180.958 45.3333 181.054 45.5253 181.246C45.7173 181.438 45.8133 181.734 45.8133 182.134V183.748C45.8133 183.916 45.7293 184 45.5613 184C45.3933 184 45.3093 183.916 45.3093 183.748V182.134C45.3093 181.872 45.2613 181.695 45.1653 181.603C45.0713 181.509 44.8953 181.462 44.6373 181.462H44.4693C44.2293 181.462 44.0203 181.49 43.8423 181.546C43.6643 181.6 43.5613 181.686 43.5333 181.804V183.748C43.5333 183.916 43.4493 184 43.2813 184ZM47.7219 185.2C47.4799 185.2 47.2889 185.151 47.1489 185.053C47.0109 184.955 46.9219 184.806 46.8819 184.606C46.8679 184.522 46.8829 184.456 46.9269 184.408C46.9709 184.36 47.0379 184.336 47.1279 184.336C47.2039 184.336 47.2589 184.356 47.2929 184.396C47.3289 184.438 47.3599 184.5 47.3859 184.582C47.4099 184.626 47.4469 184.656 47.4969 184.672C47.5489 184.688 47.6239 184.696 47.7219 184.696H48.8379C48.9879 184.696 49.0849 184.672 49.1289 184.624C49.1749 184.578 49.1979 184.482 49.1979 184.336V183.637C49.0899 183.755 48.9559 183.845 48.7959 183.907C48.6379 183.969 48.4599 184 48.2619 184H48.0339C47.6359 184 47.3399 183.904 47.1459 183.712C46.9539 183.52 46.8579 183.226 46.8579 182.83V182.134C46.8579 181.732 46.9529 181.436 47.1429 181.246C47.3349 181.054 47.6319 180.958 48.0339 180.958H48.5259C48.6679 180.958 48.7949 180.979 48.9069 181.021C49.0209 181.063 49.1179 181.127 49.1979 181.213V181.21C49.1979 181.042 49.2819 180.958 49.4499 180.958C49.6179 180.958 49.7019 181.042 49.7019 181.21V184.336C49.7019 184.63 49.6309 184.847 49.4889 184.987C49.3489 185.129 49.1319 185.2 48.8379 185.2H47.7219ZM48.0339 183.496H48.2619C48.5259 183.496 48.7479 183.463 48.9279 183.397C49.1079 183.331 49.1979 183.226 49.1979 183.082V181.882C49.1979 181.72 49.1389 181.61 49.0209 181.552C48.9049 181.492 48.7399 181.462 48.5259 181.462H48.0339C47.7759 181.462 47.5989 181.508 47.5029 181.6C47.4089 181.692 47.3619 181.87 47.3619 182.134V182.83C47.3619 183.084 47.4089 183.259 47.5029 183.355C47.5969 183.449 47.7739 183.496 48.0339 183.496ZM51.2526 182.686V182.83C51.2526 183.088 51.2996 183.264 51.3936 183.358C51.4876 183.45 51.6646 183.496 51.9246 183.496H52.4166C52.6206 183.496 52.7716 183.477 52.8696 183.439C52.9676 183.401 53.0326 183.334 53.0646 183.238C53.0866 183.162 53.1166 183.104 53.1546 183.064C53.1946 183.024 53.2546 183.004 53.3346 183.004C53.4186 183.004 53.4826 183.026 53.5266 183.07C53.5706 183.114 53.5846 183.178 53.5686 183.262C53.5246 183.51 53.4066 183.695 53.2146 183.817C53.0226 183.939 52.7566 184 52.4166 184H51.9246C51.5266 184 51.2306 183.904 51.0366 183.712C50.8446 183.52 50.7486 183.226 50.7486 182.83V182.134C50.7486 181.728 50.8446 181.43 51.0366 181.24C51.2306 181.048 51.5266 180.954 51.9246 180.958H52.4166C52.8166 180.958 53.1126 181.054 53.3046 181.246C53.4966 181.436 53.5926 181.732 53.5926 182.134V182.434C53.5926 182.602 53.5086 182.686 53.3406 182.686H51.2526ZM51.9246 181.462C51.6646 181.458 51.4876 181.503 51.3936 181.597C51.2996 181.691 51.2526 181.87 51.2526 182.134V182.182H53.0886V182.134C53.0886 181.872 53.0416 181.695 52.9476 181.603C52.8556 181.509 52.6786 181.462 52.4166 181.462H51.9246ZM54.9473 184C54.7793 184 54.6953 183.916 54.6953 183.748V181.21C54.6953 181.042 54.7793 180.958 54.9473 180.958C55.1153 180.958 55.1993 181.042 55.1993 181.21V181.444C55.3173 181.284 55.4673 181.163 55.6493 181.081C55.8333 180.999 56.0433 180.958 56.2793 180.958C56.4473 180.958 56.5313 181.042 56.5313 181.21C56.5313 181.378 56.4473 181.462 56.2793 181.462C55.9333 181.462 55.6693 181.526 55.4873 181.654C55.3053 181.782 55.2093 181.951 55.1993 182.161V183.748C55.1993 183.916 55.1153 184 54.9473 184Z" fill="white"/>
<circle id="Ellipse 1" cx="41" cy="65" r="7.5" fill="black" stroke="#202020"/>
<circle id="Ellipse 4" cx="41" cy="106" r="4" fill="#D9D9D9"/>
<circle id="Ellipse 5" cx="41" cy="129" r="4" fill="#D9D9D9"/>
<path id="+12V" d="M37.8333 122.601V121.17H38.1693V122.601H37.8333ZM37.3233 122.049V121.725H38.6763V122.049H37.3233ZM39.3221 123V121.236L39.3731 121.281C39.3431 121.343 39.3001 121.401 39.2441 121.455C39.1881 121.507 39.1221 121.552 39.0461 121.59C38.9721 121.626 38.8891 121.653 38.7971 121.671V121.221C38.8711 121.211 38.9481 121.187 39.0281 121.149C39.1081 121.109 39.1801 121.062 39.2441 121.008C39.3101 120.952 39.3571 120.896 39.3851 120.84H39.7721V123H39.3221ZM40.0022 123V122.64C40.2002 122.478 40.3652 122.339 40.4972 122.223C40.6312 122.105 40.7372 122.001 40.8152 121.911C40.8952 121.821 40.9522 121.739 40.9862 121.665C41.0202 121.591 41.0372 121.517 41.0372 121.443C41.0372 121.355 41.0132 121.287 40.9652 121.239C40.9192 121.189 40.8542 121.164 40.7702 121.164C40.6822 121.164 40.6092 121.191 40.5512 121.245C40.4932 121.299 40.4572 121.373 40.4432 121.467H39.9812C40.0032 121.263 40.0862 121.103 40.2302 120.987C40.3742 120.869 40.5602 120.81 40.7882 120.81C41.0202 120.81 41.2012 120.87 41.3312 120.99C41.4612 121.108 41.5262 121.273 41.5262 121.485C41.5262 121.585 41.5092 121.681 41.4752 121.773C41.4432 121.865 41.3892 121.96 41.3132 122.058C41.2372 122.156 41.1332 122.264 41.0012 122.382C40.8712 122.498 40.7082 122.631 40.5122 122.781L40.4012 122.646H41.5682V123H40.0022ZM42.4637 123L41.6897 120.84H42.1697L42.7607 122.64H42.7037L43.2977 120.84H43.7537L42.9797 123H42.4637Z" fill="white"/>
<circle id="Ellipse 6" cx="41" cy="151" r="4" fill="#D9D9D9"/>
<path id="Ellipse 1_2" d="M41 103.5C42.3807 103.5 43.5 104.619 43.5 106C43.5 107.381 42.3807 108.5 41 108.5C39.6193 108.5 38.5 107.381 38.5 106C38.5 104.619 39.6193 103.5 41 103.5Z" fill="#3ADF3D" stroke="black"/>
<circle id="Ellipse 3" cx="41" cy="151" r="2.5" fill="#3ADF3D" stroke="black"/>
<path id="Ellipse 7" d="M42 65C42 65.5523 41.5523 66 41 66C40.4477 66 40 65.5523 40 65C40 64.4477 40.4477 64 41 64C41.5523 64 42 64.4477 42 65Z" fill="#D9D9D9"/>
<circle id="Ellipse 8" cx="41" cy="234" r="6" fill="black" stroke="#BEBEBE" stroke-width="2"/>
<path id="Polygon 1" d="M42.5 232L43 241H39L39.5 232H42.5Z" fill="url(#paint0_linear_4_3)"/>
<path id="Ellipse 9" d="M44 242C44 243.657 42.6569 245 41 245C39.3431 245 38 243.657 38 242C38 240.343 39.3431 239 41 239C42.6569 239 44 240.343 44 242Z" fill="#D9D9D9"/>
<circle id="Ellipse 2" cx="41" cy="129" r="2.5" fill="#3ADF3D" stroke="black"/>
</g>
</g>
<defs>
<linearGradient id="paint0_linear_4_3" x1="41" y1="232" x2="41" y2="241" gradientUnits="userSpaceOnUse">
<stop/>
<stop offset="0.9999" stop-color="#4F4F4F"/>
</linearGradient>
<clipPath id="clip0_4_3">
<rect width="880" height="313" fill="white"/>
</clipPath>
</defs>
</svg>
