<svg width="1200" height="401" viewBox="0 0 1200 401" fill="none" xmlns="http://www.w3.org/2000/svg">
<rect width="1200" height="401" fill="#1E1E1E"/>
<rect width="1200" height="400" fill="#D1B18E"/>
<path d="M0 0H1200V25H0V0Z" fill="#EED6B3"/>
<path d="M0 375.5H1200V400.5H0V375.5Z" fill="#EED6B3"/>
<rect y="25" width="25" height="354" fill="#EED6B3"/>
<rect x="1175" y="25" width="25" height="352" fill="#EED6B3"/>
<rect x="25" y="25" width="1150" height="15" fill="#A0A0A0"/>
<rect x="25" y="365" width="1150" height="15" fill="#A0A0A0"/>
<circle cx="51" cy="373" r="4" fill="#505050"/>
<circle cx="69" cy="373" r="4" fill="#505050"/>
<circle cx="87" cy="373" r="4" fill="#505050"/>
<circle cx="105" cy="373" r="4" fill="#505050"/>
<circle cx="123" cy="373" r="4" fill="#505050"/>
<circle cx="141" cy="373" r="4" fill="#505050"/>
<circle cx="33" cy="373" r="4" fill="#505050"/>
<circle cx="159" cy="373" r="4" fill="#505050"/>
<circle cx="195" cy="373" r="4" fill="#505050"/>
<circle cx="213" cy="373" r="4" fill="#505050"/>
<circle cx="231" cy="373" r="4" fill="#505050"/>
<circle cx="249" cy="373" r="4" fill="#505050"/>
<circle cx="267" cy="373" r="4" fill="#505050"/>
<circle cx="285" cy="373" r="4" fill="#505050"/>
<circle cx="177" cy="373" r="4" fill="#505050"/>
<circle cx="303" cy="373" r="4" fill="#505050"/>
<circle cx="915" cy="373" r="4" fill="#505050"/>
<circle cx="933" cy="373" r="4" fill="#505050"/>
<circle cx="951" cy="373" r="4" fill="#505050"/>
<circle cx="969" cy="373" r="4" fill="#505050"/>
<circle cx="987" cy="373" r="4" fill="#505050"/>
<circle cx="1005" cy="373" r="4" fill="#505050"/>
<circle cx="897" cy="373" r="4" fill="#505050"/>
<circle cx="1023" cy="373" r="4" fill="#505050"/>
<circle cx="1059" cy="373" r="4" fill="#505050"/>
<circle cx="1077" cy="373" r="4" fill="#505050"/>
<circle cx="1095" cy="373" r="4" fill="#505050"/>
<circle cx="1113" cy="373" r="4" fill="#505050"/>
<circle cx="1131" cy="373" r="4" fill="#505050"/>
<circle cx="1149" cy="373" r="4" fill="#505050"/>
<circle cx="1041" cy="373" r="4" fill="#505050"/>
<circle cx="1167" cy="373" r="4" fill="#505050"/>
<circle cx="627" cy="373" r="4" fill="#505050"/>
<circle cx="645" cy="373" r="4" fill="#505050"/>
<circle cx="663" cy="373" r="4" fill="#505050"/>
<circle cx="681" cy="373" r="4" fill="#505050"/>
<circle cx="699" cy="373" r="4" fill="#505050"/>
<circle cx="717" cy="373" r="4" fill="#505050"/>
<circle cx="609" cy="373" r="4" fill="#505050"/>
<circle cx="735" cy="373" r="4" fill="#505050"/>
<circle cx="771" cy="373" r="4" fill="#505050"/>
<circle cx="789" cy="373" r="4" fill="#505050"/>
<circle cx="807" cy="373" r="4" fill="#505050"/>
<circle cx="825" cy="373" r="4" fill="#505050"/>
<circle cx="843" cy="373" r="4" fill="#505050"/>
<circle cx="861" cy="373" r="4" fill="#505050"/>
<circle cx="753" cy="373" r="4" fill="#505050"/>
<circle cx="879" cy="373" r="4" fill="#505050"/>
<circle cx="339" cy="373" r="4" fill="#505050"/>
<circle cx="357" cy="373" r="4" fill="#505050"/>
<circle cx="375" cy="373" r="4" fill="#505050"/>
<circle cx="393" cy="373" r="4" fill="#505050"/>
<circle cx="411" cy="373" r="4" fill="#505050"/>
<circle cx="429" cy="373" r="4" fill="#505050"/>
<circle cx="321" cy="373" r="4" fill="#505050"/>
<circle cx="447" cy="373" r="4" fill="#505050"/>
<circle cx="483" cy="373" r="4" fill="#505050"/>
<circle cx="501" cy="373" r="4" fill="#505050"/>
<circle cx="519" cy="373" r="4" fill="#505050"/>
<circle cx="537" cy="373" r="4" fill="#505050"/>
<circle cx="555" cy="373" r="4" fill="#505050"/>
<circle cx="573" cy="373" r="4" fill="#505050"/>
<circle cx="465" cy="373" r="4" fill="#505050"/>
<circle cx="591" cy="373" r="4" fill="#505050"/>
<circle cx="51" cy="32" r="4" fill="#505050"/>
<circle cx="69" cy="32" r="4" fill="#505050"/>
<circle cx="87" cy="32" r="4" fill="#505050"/>
<circle cx="105" cy="32" r="4" fill="#505050"/>
<circle cx="123" cy="32" r="4" fill="#505050"/>
<circle cx="141" cy="32" r="4" fill="#505050"/>
<circle cx="33" cy="32" r="4" fill="#505050"/>
<circle cx="159" cy="32" r="4" fill="#505050"/>
<circle cx="195" cy="32" r="4" fill="#505050"/>
<circle cx="213" cy="32" r="4" fill="#505050"/>
<circle cx="231" cy="32" r="4" fill="#505050"/>
<circle cx="249" cy="32" r="4" fill="#505050"/>
<circle cx="267" cy="32" r="4" fill="#505050"/>
<circle cx="285" cy="32" r="4" fill="#505050"/>
<circle cx="177" cy="32" r="4" fill="#505050"/>
<circle cx="303" cy="32" r="4" fill="#505050"/>
<circle cx="915" cy="32" r="4" fill="#505050"/>
<circle cx="933" cy="32" r="4" fill="#505050"/>
<circle cx="951" cy="32" r="4" fill="#505050"/>
<circle cx="969" cy="32" r="4" fill="#505050"/>
<circle cx="987" cy="32" r="4" fill="#505050"/>
<circle cx="1005" cy="32" r="4" fill="#505050"/>
<circle cx="897" cy="32" r="4" fill="#505050"/>
<circle cx="1023" cy="32" r="4" fill="#505050"/>
<circle cx="1059" cy="32" r="4" fill="#505050"/>
<circle cx="1077" cy="32" r="4" fill="#505050"/>
<circle cx="1095" cy="32" r="4" fill="#505050"/>
<circle cx="1113" cy="32" r="4" fill="#505050"/>
<circle cx="1131" cy="32" r="4" fill="#505050"/>
<circle cx="1149" cy="32" r="4" fill="#505050"/>
<circle cx="1041" cy="32" r="4" fill="#505050"/>
<circle cx="1167" cy="32" r="4" fill="#505050"/>
<circle cx="627" cy="32" r="4" fill="#505050"/>
<circle cx="645" cy="32" r="4" fill="#505050"/>
<circle cx="663" cy="32" r="4" fill="#505050"/>
<circle cx="681" cy="32" r="4" fill="#505050"/>
<circle cx="699" cy="32" r="4" fill="#505050"/>
<circle cx="717" cy="32" r="4" fill="#505050"/>
<circle cx="609" cy="32" r="4" fill="#505050"/>
<circle cx="735" cy="32" r="4" fill="#505050"/>
<circle cx="771" cy="32" r="4" fill="#505050"/>
<circle cx="789" cy="32" r="4" fill="#505050"/>
<circle cx="807" cy="32" r="4" fill="#505050"/>
<circle cx="825" cy="32" r="4" fill="#505050"/>
<circle cx="843" cy="32" r="4" fill="#505050"/>
<circle cx="861" cy="32" r="4" fill="#505050"/>
<circle cx="753" cy="32" r="4" fill="#505050"/>
<circle cx="879" cy="32" r="4" fill="#505050"/>
<circle cx="339" cy="32" r="4" fill="#505050"/>
<circle cx="357" cy="32" r="4" fill="#505050"/>
<circle cx="375" cy="32" r="4" fill="#505050"/>
<circle cx="393" cy="32" r="4" fill="#505050"/>
<circle cx="411" cy="32" r="4" fill="#505050"/>
<circle cx="429" cy="32" r="4" fill="#505050"/>
<circle cx="321" cy="32" r="4" fill="#505050"/>
<circle cx="447" cy="32" r="4" fill="#505050"/>
<circle cx="483" cy="32" r="4" fill="#505050"/>
<circle cx="501" cy="32" r="4" fill="#505050"/>
<circle cx="519" cy="32" r="4" fill="#505050"/>
<circle cx="537" cy="32" r="4" fill="#505050"/>
<circle cx="555" cy="32" r="4" fill="#505050"/>
<circle cx="573" cy="32" r="4" fill="#505050"/>
<circle cx="465" cy="32" r="4" fill="#505050"/>
<circle cx="591" cy="32" r="4" fill="#505050"/>
<line x1="1200" y1="25.5" x2="1175" y2="25.5" stroke="#D1B18E"/>
<line x1="1200" y1="379.5" x2="1175" y2="379.5" stroke="#D1B18E"/>
<line x1="25" y1="379.5" y2="379.5" stroke="#D1B18E"/>
<line x1="25" y1="25.5" y2="25.5" stroke="#D1B18E"/>
</svg>
